<?xml version="1.0" encoding="UTF-8" standalone="no"?>
<!-- Created with Inkscape (http://www.inkscape.org/) -->

<svg
   xmlns:dc="http://purl.org/dc/elements/1.1/"
   xmlns:cc="http://creativecommons.org/ns#"
   xmlns:rdf="http://www.w3.org/1999/02/22-rdf-syntax-ns#"
   xmlns:svg="http://www.w3.org/2000/svg"
   xmlns="http://www.w3.org/2000/svg"
   xmlns:sodipodi="http://sodipodi.sourceforge.net/DTD/sodipodi-0.dtd"
   xmlns:inkscape="http://www.inkscape.org/namespaces/inkscape"
   width="62.30217mm"
   height="65.700981mm"
   viewBox="0 0 62.30217 65.700981"
   version="1.1"
   id="svg8"
   inkscape:version="0.92.2 (5c3e80d, 2017-08-06)"
   sodipodi:docname="searchicontest.svg">
  <defs
     id="defs2" />
  <sodipodi:namedview
     id="base"
     pagecolor="#000000"
     bordercolor="#666666"
     borderopacity="1.0"
     inkscape:pageopacity="0"
     inkscape:pageshadow="2"
     inkscape:zoom="2"
     inkscape:cx="14.827498"
     inkscape:cy="87.186066"
     inkscape:document-units="px"
     inkscape:current-layer="layer1"
     showgrid="false"
     showborder="true"
     inkscape:object-paths="true"
     inkscape:snap-intersection-paths="true"
     inkscape:snap-smooth-nodes="true"
     inkscape:window-width="1920"
     inkscape:window-height="1017"
     inkscape:window-x="-8"
     inkscape:window-y="-8"
     inkscape:window-maximized="1"
     fit-margin-top="0"
     fit-margin-left="0"
     fit-margin-right="0"
     fit-margin-bottom="0" />
  <metadata
     id="metadata5">
    <rdf:RDF>
      <cc:Work
         rdf:about="">
        <dc:format>image/svg+xml</dc:format>
        <dc:type
           rdf:resource="http://purl.org/dc/dcmitype/StillImage" />
        <dc:title></dc:title>
      </cc:Work>
    </rdf:RDF>
  </metadata>
  <g
     inkscape:label="Layer 1"
     inkscape:groupmode="layer"
     id="layer1"
     transform="translate(-79.63761,-59.158345)">
    <path
       style="opacity:1;fill:#ffffff;stroke-width:0.2305672"
       d="M 105,59.158345 A 25.362392,25.362392 0 0 0 79.63761,84.520738 25.362392,25.362392 0 0 0 105,109.88313 25.362392,25.362392 0 0 0 130.36239,84.520738 25.362392,25.362392 0 0 0 105,59.158345 Z m 0,3.573792 A 21.7886,21.7886 0 0 1 126.7886,84.520738 21.7886,21.7886 0 0 1 105,106.30934 21.7886,21.7886 0 0 1 83.2114,84.520738 21.7886,21.7886 0 0 1 105,62.732137 Z"
       id="path815"
       inkscape:connector-curvature="0" />
    <rect
       style="opacity:1;fill:#ffffff;stroke-width:0.27144012"
       id="rect822"
       width="11.179155"
       height="27.160135"
       x="6.4881282"
       y="159.17285"
       ry="5.5895777"
       transform="rotate(-45)" />
  </g>
</svg>
